<svg width="24" height="25" viewBox="0 0 24 25" fill="none" xmlns="http://www.w3.org/2000/svg">
<g id="menu_24px">
<path id="icon/navigation/menu_24px" fill-rule="evenodd" clip-rule="evenodd" d="M4 8.10925C3.45 8.10925 3 7.65925 3 7.10925C3 6.55925 3.45 6.10925 4 6.10925H20C20.55 6.10925 21 6.55925 21 7.10925C21 7.65925 20.55 8.10925 20 8.10925H4ZM4 13.1093H20C20.55 13.1093 21 12.6593 21 12.1093C21 11.5593 20.55 11.1093 20 11.1093H4C3.45 11.1093 3 11.5593 3 12.1093C3 12.6593 3.45 13.1093 4 13.1093ZM4 18.1093H20C20.55 18.1093 21 17.6593 21 17.1093C21 16.5593 20.55 16.1093 20 16.1093H4C3.45 16.1093 3 16.5593 3 17.1093C3 17.6593 3.45 18.1093 4 18.1093Z" fill="black" fill-opacity="0.54"/>
</g>
</svg>
