<svg width="24" height="25" viewBox="0 0 24 25" fill="none" xmlns="http://www.w3.org/2000/svg">
<g id="upload_24px">
<path id="icon/file/upload_24px" fill-rule="evenodd" clip-rule="evenodd" d="M14 16.5147H10C9.45 16.5147 9 16.0647 9 15.5147V10.5147H7.41C6.52 10.5147 6.08 9.43473 6.71 8.80473L11.3 4.21473C11.4868 4.02747 11.7405 3.92224 12.005 3.92224C12.2695 3.92224 12.5232 4.02747 12.71 4.21473L17.3 8.80473C17.93 9.43473 17.48 10.5147 16.59 10.5147H15V15.5147C15 16.0647 14.55 16.5147 14 16.5147ZM18 18.5147H6C5.45 18.5147 5 18.9647 5 19.5147C5 20.0647 5.45 20.5147 6 20.5147H18C18.55 20.5147 19 20.0647 19 19.5147C19 18.9647 18.55 18.5147 18 18.5147Z" fill="black" fill-opacity="0.54"/>
</g>
</svg>
