<svg width="42" height="42" viewBox="0 0 42 42" fill="none" xmlns="http://www.w3.org/2000/svg">
<path d="M21 20.9243C21 15.2139 25.7586 10.4553 31.469 10.4553C36.3608 10.4553 40.5484 13.9386 41.6524 18.5259C41.9379 19.7442 41.0433 20.9243 39.8061 20.9243H21Z" fill="#504DF1"/>
<path d="M21 20.9243C21 26.6346 16.2414 31.3932 10.531 31.3932C5.63917 31.3932 1.45158 27.9099 0.347584 23.3226C0.0620669 22.1044 0.956687 20.9243 2.19393 20.9243H21Z" fill="#504DF1"/>
<path d="M21 20.9243C15.2897 20.9243 10.531 16.1657 10.531 10.4553C10.531 5.56346 14.0143 1.37587 18.6017 0.27187C19.8199 -0.0136472 21 0.880973 21 2.11821V20.9243Z" fill="#504DF1"/>
<path d="M21 20.9243C26.7103 20.9243 31.469 25.6829 31.469 31.3932C31.469 36.2851 27.9857 40.4727 23.3983 41.5767C22.1801 41.8622 21 40.9676 21 39.7304V20.9243Z" fill="#504DF1"/>
</svg>
