<svg width="114" height="25" viewBox="0 0 114 25" fill="none" xmlns="http://www.w3.org/2000/svg">
<path d="M12.1093 12.1092C12.1093 8.76971 14.8922 5.98676 18.2317 5.98676C21.0926 5.98676 23.5416 8.02388 24.1873 10.7066C24.3542 11.4191 23.831 12.1092 23.1075 12.1092H12.1093Z" fill="#504DF1"/>
<path d="M12.1092 12.1093C12.1092 15.4488 9.32628 18.2317 5.98674 18.2317C3.12587 18.2317 0.676871 16.1946 0.0312264 13.5119C-0.135751 12.7994 0.387444 12.1093 1.11101 12.1093H12.1092Z" fill="#504DF1"/>
<path d="M12.1092 12.1092C8.76971 12.1092 5.98676 9.32628 5.98676 5.98674C5.98676 3.12587 8.02388 0.676871 10.7066 0.0312264C11.4191 -0.135751 12.1092 0.387444 12.1092 1.11101V12.1092Z" fill="#504DF1"/>
<path d="M12.1093 12.1093C15.4488 12.1093 18.2317 14.8922 18.2317 18.2317C18.2317 21.0926 16.1946 23.5416 13.5119 24.1873C12.7994 24.3542 12.1093 23.831 12.1093 23.1075V12.1093Z" fill="#504DF1"/>
<path d="M30.5126 19.5287C30.5014 19.1691 30.4959 18.8038 30.4959 18.433C30.4959 18.0733 30.4959 17.7137 30.4959 17.354C30.4959 15.7019 30.5293 14.1004 30.5961 12.5494C30.663 10.9872 30.7409 9.49802 30.8301 8.08192C30.3845 8.1943 30.0113 8.30107 29.7105 8.40222L29.0588 5.70489C29.6047 5.5363 30.1784 5.3902 30.7799 5.26657C31.3926 5.1317 31.9886 5.02493 32.5679 4.94626C33.1583 4.85635 33.6985 4.79454 34.1887 4.76082C34.69 4.71586 35.1022 4.69339 35.4252 4.69339C35.7705 4.69339 36.1938 4.72148 36.6951 4.77768C37.2076 4.83387 37.7311 4.95188 38.2658 5.1317C38.8117 5.30029 39.3185 5.55878 39.7864 5.90719C40.2543 6.25559 40.633 6.72763 40.9227 7.32329C41.2234 7.90771 41.3738 8.64386 41.3738 9.53174C41.3738 10.4533 41.1733 11.2232 40.7723 11.8413C40.3713 12.4482 39.8421 12.9371 39.1849 13.308C38.5276 13.6677 37.8035 13.9261 37.0126 14.0835C36.2217 14.2408 35.4419 14.3195 34.6733 14.3195C34.1831 14.3195 33.7153 14.297 33.2697 14.2521C33.2585 14.7915 33.253 15.3254 33.253 15.8536C33.253 16.5729 33.2585 17.2416 33.2697 17.8598C33.2808 18.4667 33.3031 19.0005 33.3365 19.4613L30.5126 19.5287ZM35.3417 7.45816C35.052 7.45816 34.7513 7.4694 34.4393 7.49187C34.1386 7.51435 33.8378 7.54245 33.537 7.57617C33.4813 8.17183 33.4368 8.81806 33.4033 9.51488C33.3699 10.2117 33.3421 10.9254 33.3198 11.6559C33.732 11.6896 34.1608 11.7065 34.6064 11.7065C37.28 11.7065 38.6167 10.9085 38.6167 9.31258C38.6167 8.6832 38.3494 8.21678 37.8147 7.91333C37.28 7.60988 36.4556 7.45816 35.3417 7.45816Z" fill="#504DF1"/>
<path d="M42.8487 7.50873C42.8487 7.40758 42.8432 7.30643 42.832 7.20528C42.832 7.09289 42.832 6.96926 42.832 6.8344C42.832 6.47475 42.8431 6.09263 42.8654 5.68803C42.8877 5.28343 42.91 4.94064 42.9323 4.65967L45.9066 4.71024C45.8732 5.09237 45.8342 5.52506 45.7896 6.00834C45.7562 6.49161 45.7339 6.99174 45.7228 7.50873H42.8487ZM42.7819 19.5793C42.7485 18.8825 42.7262 18.1407 42.715 17.354C42.7039 16.5561 42.6983 15.7581 42.6983 14.9601C42.6983 13.9149 42.7095 12.8978 42.7318 11.9088C42.754 10.9197 42.7819 10.0206 42.8153 9.21143L45.6894 9.19457C45.6448 9.71156 45.6169 10.3522 45.6058 11.1164C45.5947 11.8694 45.5891 12.6618 45.5891 13.4935C45.5891 14.3139 45.5947 15.1231 45.6058 15.9211C45.6169 16.719 45.6281 17.4439 45.6392 18.0958C45.6615 18.7364 45.6782 19.2309 45.6894 19.5793H42.7819Z" fill="#504DF1"/>
<path d="M47.4384 19.613C47.405 18.624 47.3771 17.708 47.3548 16.8651C47.3437 16.0222 47.3381 15.1905 47.3381 14.3701C47.3381 13.5496 47.3437 12.7292 47.3548 11.9088C47.3771 11.0771 47.4105 10.1892 47.4551 9.24514H50.279C50.2345 9.75089 50.1955 10.2623 50.1621 10.7793C50.5408 10.296 50.992 9.897 51.5155 9.58231C52.0391 9.25638 52.6574 9.09342 53.3703 9.09342C54.0721 9.09342 54.6458 9.21143 55.0914 9.44744C55.5481 9.68346 55.9046 10.0094 56.1608 10.4252C56.4282 10.8411 56.6175 11.3187 56.7289 11.8582C56.8515 12.3864 56.9295 12.9596 56.9629 13.5777C56.9963 14.1846 57.013 14.7972 57.013 15.4153C57.013 16.0896 57.0019 16.7359 56.9796 17.354C56.9573 17.9722 56.935 18.4891 56.9127 18.905C56.8905 19.3208 56.8738 19.5681 56.8626 19.6468H54.0554C54.0777 19.186 54.1 18.6971 54.1222 18.1801C54.1445 17.6518 54.1668 17.1349 54.1891 16.6291C54.2114 16.1121 54.2225 15.6457 54.2225 15.2299C54.2225 12.836 53.8382 11.639 53.0695 11.639C52.4346 11.639 51.8553 11.92 51.3317 12.4819C50.8193 13.0327 50.3904 13.7295 50.0451 14.5724C50.0451 14.6848 50.0451 14.7972 50.0451 14.9096C50.0451 15.449 50.0451 16.011 50.0451 16.5954C50.0562 17.1686 50.0674 17.7193 50.0785 18.2475C50.1008 18.7645 50.1175 19.2141 50.1286 19.5962L47.4384 19.613Z" fill="#504DF1"/>
<path d="M61.6534 19.7479C61.1076 19.7479 60.584 19.422 60.0827 18.7701C59.5926 18.1295 59.1971 17.2697 58.8964 16.1908C58.6847 15.3928 58.4675 14.4319 58.2447 13.308C58.033 12.1841 57.8381 10.9197 57.6598 9.51488C57.4927 8.11001 57.3702 6.59838 57.2922 4.97998L60.1663 4.84511C60.222 5.89033 60.2944 6.92431 60.3835 7.94705C60.4838 8.96979 60.5952 9.93634 60.7177 10.8467C60.8402 11.757 60.9684 12.5775 61.102 13.308C61.2468 14.0273 61.3861 14.6117 61.5198 15.0613C61.5532 15.1624 61.5755 15.2411 61.5866 15.2973C61.6089 15.3535 61.6256 15.3928 61.6367 15.4153C61.6479 15.3703 61.6646 15.2973 61.6869 15.1961C61.7203 15.095 61.7537 14.9882 61.7871 14.8758C61.9542 14.2802 62.138 13.4934 62.3385 12.5157C62.5502 11.5379 62.7451 10.4421 62.9234 9.22828C63.1016 8.01448 63.2409 6.75573 63.3411 5.45201C63.33 5.3621 63.3244 5.27219 63.3244 5.18228L66.2987 5.16542C66.399 6.86249 66.5271 8.32355 66.683 9.54859C66.839 10.7736 67.0061 11.8189 67.1843 12.6842C67.3737 13.5384 67.5464 14.2689 67.7023 14.8758C67.7135 14.9096 67.7246 14.9601 67.7358 15.0276C67.758 15.0838 67.7747 15.14 67.7859 15.1961C67.8082 15.14 67.8304 15.0725 67.8527 14.9938C67.875 14.9039 67.8973 14.8084 67.9196 14.7073C68.0532 14.224 68.1869 13.6171 68.3206 12.8865C68.4654 12.1448 68.5991 11.33 68.7216 10.4421C68.8553 9.55421 68.9723 8.63824 69.0725 7.69417C69.1839 6.75011 69.2786 5.83413 69.3566 4.94626H72.2975C72.2529 5.68803 72.1749 6.48037 72.0635 7.32329C71.9633 8.16621 71.8463 9.02037 71.7126 9.88576C71.579 10.7512 71.4342 11.5885 71.2782 12.3977C71.1334 13.1956 70.983 13.9318 70.827 14.6061C70.6822 15.2804 70.5485 15.8424 70.426 16.2919C70.1252 17.3709 69.7409 18.2138 69.273 18.8207C68.8163 19.4276 68.3262 19.731 67.8026 19.731C67.2567 19.731 66.7889 19.5006 66.399 19.0399C66.0202 18.5791 65.6359 17.798 65.246 16.6965C65.1458 16.4156 65.0399 16.0615 64.9285 15.6345C64.8283 15.2074 64.7225 14.7353 64.6111 14.2184C64.4662 14.8477 64.327 15.4153 64.1933 15.9211C64.0708 16.4156 63.9594 16.8202 63.8591 17.1349C63.6475 17.7867 63.4358 18.3037 63.2242 18.6858C63.0125 19.0679 62.7841 19.3377 62.5391 19.495C62.294 19.6636 61.9988 19.7479 61.6534 19.7479Z" fill="#504DF1"/>
<path d="M73.7602 19.5625C73.7602 18.8769 73.7602 18.0003 73.7602 16.9326C73.7714 15.8536 73.7825 14.6567 73.7936 13.3417C73.8159 12.0268 73.8438 10.6444 73.8772 9.19457C73.9218 7.74475 73.9719 6.29493 74.0276 4.84511L76.8682 4.82825C76.8237 5.46887 76.7791 6.24997 76.7345 7.17156C76.69 8.09315 76.651 9.08218 76.6176 10.1386C77.3862 9.41935 78.2663 9.0597 79.2577 9.0597C79.9372 9.0597 80.4998 9.18333 80.9454 9.43059C81.4021 9.67784 81.7697 10.0038 82.0482 10.4084C82.3267 10.8017 82.5384 11.2344 82.6832 11.7065C82.828 12.1785 82.9282 12.6449 82.9839 13.1057C83.0396 13.5553 83.0675 13.9542 83.0675 14.3027C83.0675 15.0444 83.0619 15.7806 83.0508 16.5111C83.0396 17.2416 83.0285 17.8822 83.0174 18.433C83.0174 18.9837 83.0174 19.3714 83.0174 19.5962L80.0932 19.613C80.1377 19.1747 80.1656 18.669 80.1767 18.0958C80.199 17.5226 80.2101 16.9326 80.2101 16.3257C80.2213 15.7075 80.2269 15.1231 80.2269 14.5724C80.2269 12.7517 79.8035 11.8413 78.9569 11.8413C78.7007 11.8413 78.4166 11.9088 78.1047 12.0436C77.7928 12.1785 77.492 12.392 77.2024 12.6842C76.9239 12.9765 76.7011 13.3642 76.534 13.8475C76.5229 14.5892 76.5173 15.3085 76.5173 16.0053C76.5173 16.646 76.5229 17.2472 76.534 17.8092C76.5563 18.3599 76.573 18.9162 76.5842 19.4782L73.7602 19.5625Z" fill="#504DF1"/>
<path d="M89.7551 19.7479C88.6857 19.7479 87.7444 19.5344 86.9312 19.1073C86.1291 18.6914 85.4997 18.107 85.043 17.354C84.5974 16.601 84.3746 15.73 84.3746 14.741C84.3746 14.1453 84.4749 13.5215 84.6754 12.8697C84.8759 12.2066 85.199 11.5885 85.6446 11.0153C86.0901 10.4421 86.675 9.97567 87.3991 9.61603C88.1343 9.25638 89.0255 9.07656 90.0726 9.07656C90.8301 9.07656 91.4651 9.16085 91.9775 9.32943C92.5011 9.49802 92.9244 9.71718 93.2474 9.98691C93.5816 10.2566 93.8323 10.5432 93.9994 10.8467C94.1776 11.1501 94.2946 11.4423 94.3503 11.7233C94.4171 11.9931 94.4505 12.2178 94.4505 12.3977C94.4505 13.4878 93.9938 14.3307 93.0803 14.9264C92.178 15.5108 90.897 15.803 89.2371 15.803C88.8584 15.803 88.4963 15.7862 88.151 15.7525C87.8168 15.7188 87.5049 15.6794 87.2153 15.6345C87.4269 16.1964 87.7778 16.6122 88.268 16.882C88.7581 17.1405 89.265 17.2697 89.7885 17.2697C90.546 17.2697 91.2144 17.1349 91.7937 16.8651C92.373 16.5842 92.9188 16.1571 93.4312 15.5839L94.9184 17.7418C94.5619 18.034 94.1609 18.3374 93.7153 18.6521C93.2809 18.9668 92.7462 19.2253 92.1112 19.4276C91.4762 19.6411 90.6909 19.7479 89.7551 19.7479ZM90.1227 11.6053C89.4655 11.6053 88.8862 11.7739 88.3849 12.1111C87.8836 12.4482 87.516 12.8922 87.2821 13.4429C87.5606 13.4878 87.8335 13.5272 88.1009 13.5609C88.3794 13.5834 88.6523 13.5946 88.9196 13.5946C89.1647 13.5946 89.4432 13.5721 89.7551 13.5272C90.0782 13.4822 90.3901 13.4148 90.6909 13.3249C91.0028 13.235 91.259 13.1226 91.4595 12.9877C91.66 12.8416 91.7603 12.673 91.7603 12.4819C91.7603 12.392 91.7157 12.2796 91.6266 12.1448C91.5375 12.0099 91.376 11.8863 91.142 11.7739C90.9081 11.6615 90.5683 11.6053 90.1227 11.6053Z" fill="#504DF1"/>
<path d="M101.259 19.7479C100.19 19.7479 99.2486 19.5344 98.4354 19.1073C97.6333 18.6914 97.0039 18.107 96.5472 17.354C96.1016 16.601 95.8788 15.73 95.8788 14.741C95.8788 14.1453 95.9791 13.5215 96.1796 12.8697C96.3801 12.2066 96.7032 11.5885 97.1487 11.0153C97.5943 10.4421 98.1792 9.97567 98.9033 9.61603C99.6385 9.25638 100.53 9.07656 101.577 9.07656C102.334 9.07656 102.969 9.16085 103.482 9.32943C104.005 9.49802 104.429 9.71718 104.752 9.98691C105.086 10.2566 105.336 10.5432 105.504 10.8467C105.682 11.1501 105.799 11.4423 105.854 11.7233C105.921 11.9931 105.955 12.2178 105.955 12.3977C105.955 13.4878 105.498 14.3307 104.585 14.9264C103.682 15.5108 102.401 15.803 100.741 15.803C100.363 15.803 100.001 15.7862 99.6552 15.7525C99.321 15.7188 99.0091 15.6794 98.7195 15.6345C98.9311 16.1964 99.282 16.6122 99.7722 16.882C100.262 17.1405 100.769 17.2697 101.293 17.2697C102.05 17.2697 102.719 17.1349 103.298 16.8651C103.877 16.5842 104.423 16.1571 104.935 15.5839L106.423 17.7418C106.066 18.034 105.665 18.3374 105.219 18.6521C104.785 18.9668 104.25 19.2253 103.615 19.4276C102.98 19.6411 102.195 19.7479 101.259 19.7479ZM101.627 11.6053C100.97 11.6053 100.39 11.7739 99.8891 12.1111C99.3878 12.4482 99.0202 12.8922 98.7863 13.4429C99.0648 13.4878 99.3377 13.5272 99.6051 13.5609C99.8836 13.5834 100.156 13.5946 100.424 13.5946C100.669 13.5946 100.947 13.5721 101.259 13.5272C101.582 13.4822 101.894 13.4148 102.195 13.3249C102.507 13.235 102.763 13.1226 102.964 12.9877C103.164 12.8416 103.264 12.673 103.264 12.4819C103.264 12.392 103.22 12.2796 103.131 12.1448C103.042 12.0099 102.88 11.8863 102.646 11.7739C102.412 11.6615 102.073 11.6053 101.627 11.6053Z" fill="#504DF1"/>
<path d="M110.976 19.731C110.363 19.731 109.856 19.5962 109.455 19.3264C109.065 19.0679 108.753 18.7083 108.519 18.2475C108.296 17.7867 108.129 17.2585 108.018 16.6628C107.918 16.0672 107.851 15.4322 107.817 14.7578C107.795 14.0723 107.784 13.3867 107.784 12.7011C107.784 12.1054 107.801 11.4536 107.834 10.7455C107.868 10.0262 107.907 9.30134 107.951 8.57081C108.007 7.82904 108.063 7.13223 108.118 6.48037C108.185 5.82851 108.246 5.26095 108.302 4.77768L111.326 4.81139C111.237 5.38458 111.154 6.03643 111.076 6.76696C110.998 7.48625 110.931 8.21678 110.875 8.95855C110.831 9.70032 110.792 10.3859 110.758 11.0153C110.736 11.6446 110.725 12.1448 110.725 12.5157C110.725 13.5384 110.742 14.342 110.775 14.9264C110.82 15.5108 110.881 15.9267 110.959 16.1739C111.048 16.4099 111.165 16.528 111.31 16.528C111.499 16.528 111.705 16.4099 111.928 16.1739C112.151 15.9267 112.368 15.6513 112.58 15.3479L114 18.1969C113.655 18.5791 113.243 18.9275 112.764 19.2422C112.284 19.5681 111.689 19.731 110.976 19.731Z" fill="#504DF1"/>
</svg>
